<svg width="168" height="20" viewBox="0 0 168 20" fill="none" xmlns="http://www.w3.org/2000/svg">
<g id="Vector">
<path d="M8.83664 19.6175L0 0.57872H4.54191L11.3953 16.129L10.6905 17.7636L18.2294 0.57872H22.7096L13.9656 19.6175H8.83664Z" fill="black"/>
<path d="M36.2865 20C33.6294 20 31.3532 19.6077 29.4582 18.823C27.5838 18.0186 26.1419 16.8808 25.1326 15.4095C24.1439 13.9382 23.6495 12.1726 23.6495 10.1128C23.6495 8.03335 24.1439 6.25797 25.1326 4.78666C26.1419 3.31535 27.5838 2.18735 29.4582 1.40265C31.3532 0.598337 33.6294 0.196179 36.2865 0.196179C38.9643 0.196179 41.2404 0.598337 43.1148 1.40265C44.9893 2.18735 46.4209 3.31535 47.4096 4.78666C48.4189 6.25797 48.9235 8.03335 48.9235 10.1128C48.9235 12.1726 48.4189 13.9382 47.4096 15.4095C46.4209 16.8808 44.9893 18.0186 43.1148 18.823C41.2404 19.6077 38.9643 20 36.2865 20ZM36.2865 16.616C37.9344 16.616 39.3763 16.3806 40.6122 15.9098C41.8686 15.4389 42.8471 14.7229 43.5474 13.7616C44.2683 12.8004 44.6288 11.5841 44.6288 10.1128C44.6288 8.64149 44.2683 7.42521 43.5474 6.46396C42.8471 5.5027 41.8686 4.78666 40.6122 4.31584C39.3763 3.82541 37.9344 3.58019 36.2865 3.58019C34.6593 3.58019 33.2071 3.82541 31.93 4.31584C30.6529 4.78666 29.6539 5.5027 28.933 6.46396C28.212 7.42521 27.8515 8.64149 27.8515 10.1128C27.8515 11.5841 28.212 12.8004 28.933 13.7616C29.6539 14.7229 30.6529 15.4389 31.93 15.9098C33.2071 16.3806 34.6593 16.616 36.2865 16.616Z" fill="black"/>
<path d="M71.3241 0.57872L62.5493 13.6145V19.6175H58.409V13.6145L49.6342 0.57872H54.3924L60.5581 10L59.305 11.9667L66.5659 0.57872H71.3241Z" fill="black"/>
<path d="M106.279 20C104.425 20 102.746 19.794 101.243 19.382C99.7596 18.9701 98.4722 18.3521 97.3805 17.5282C96.3094 16.7043 95.4854 15.6842 94.9087 14.4679C94.3319 13.2516 94.0436 11.8489 94.0436 10.2599C94.0436 8.6513 94.3422 7.22904 94.9396 5.99314C95.5575 4.73762 96.4227 3.67828 97.535 2.81511C98.6679 1.95194 100.007 1.30457 101.552 0.872981C103.117 0.42178 104.847 0.196179 106.742 0.196179C108.988 0.196179 110.924 0.50025 112.551 1.10839C114.178 1.69691 115.455 2.53066 116.382 3.60962C117.33 4.68858 117.865 5.97352 117.989 7.46445H114.034C113.766 6.67975 113.324 6.00295 112.706 5.43404C112.108 4.84552 111.315 4.39431 110.326 4.08044C109.338 3.74694 108.143 3.58019 106.742 3.58019C104.95 3.58019 103.416 3.85483 102.139 4.40412C100.882 4.95341 99.9244 5.7283 99.2652 6.72879C98.6061 7.72928 98.2765 8.90633 98.2765 10.2599C98.2765 11.5743 98.5649 12.7121 99.1416 13.6734C99.7184 14.615 100.604 15.3409 101.799 15.8509C103.014 16.361 104.559 16.616 106.433 16.616C107.875 16.616 109.142 16.4394 110.234 16.0863C111.346 15.7136 112.273 15.2231 113.015 14.615C113.756 13.9872 113.978 13.6145 114.287 12.8494H115.938C115.67 15.3801 114.92 16.4689 113.169 17.8813C111.439 19.2938 109.142 20 106.279 20ZM115.146 19.6175C115.146 19.0093 115.188 18.3129 115.27 17.5282C115.352 16.7239 115.458 15.9656 115.581 15.1613C115.705 14.3374 115.835 13.536 115.938 12.8494H106.773V10.3482H118.7V19.6175H115.146Z" fill="black"/>
<path d="M127.137 11.6724V16.3512H142.554V19.6175H123.027V0.57872H142.523V3.84503H127.137V8.58264H139.743V11.6724H127.137Z" fill="black"/>
<path d="M146.774 19.6175V0.57872H160.337C161.882 0.57872 163.221 0.784703 164.354 1.19667C165.508 1.58902 166.404 2.21678 167.042 3.07994C167.681 3.92349 168 5.01226 168 6.34625C168 7.24865 167.835 8.01373 167.506 8.64149C167.176 9.26925 166.713 9.77931 166.115 10.1717C165.539 10.564 164.869 10.8681 164.107 11.0839C163.345 11.28 162.679 11.1858 161.814 11.2447L161.233 11.231C162.675 11.2506 163.86 11.3683 164.787 11.5841C165.714 11.7803 166.404 12.153 166.857 12.7023C167.331 13.232 167.567 14.0265 167.567 15.0858V19.6175H163.458V15.3507C163.458 14.6248 163.324 14.0657 163.056 13.6734C162.789 13.2614 162.305 12.977 161.604 12.82C160.924 12.6631 159.936 12.5846 158.638 12.5846H150.883V19.6175H146.774ZM150.883 9.52428H160.337C161.491 9.52428 162.366 9.25944 162.964 8.72977C163.582 8.2001 163.891 7.48406 163.891 6.58166C163.891 5.71849 163.582 5.06131 162.964 4.61011C162.366 4.1589 161.491 3.9333 160.337 3.9333H150.883V9.52428Z" fill="black"/>
<path d="M68.9049 19.5761L80.4635 0.0135678L80.4738 0.00363079L80.4876 0L80.5015 0.00363079L80.5117 0.0135678L92.0704 19.5761L92.0741 19.5898L92.0704 19.6036L92.0602 19.6137L92.0463 19.6175H68.929L68.915 19.6137L68.9048 19.6036L68.9011 19.5898L68.9049 19.5761ZM79.7555 12.0113L79.754 4.13828C79.754 4.0887 79.7413 4.08538 79.7159 4.12831L72.3104 16.6612C72.2865 16.702 72.2948 16.7097 72.3352 16.6842L79.7252 12.0649C79.7454 12.0522 79.7555 12.0343 79.7555 12.0113ZM81.2632 4.13138C81.2358 4.08538 81.222 4.08896 81.222 4.14211V11.9975C81.222 12.0118 81.2257 12.0259 81.2326 12.0385C81.2395 12.0511 81.2495 12.0617 81.2617 12.0695L88.647 16.6872C88.6822 16.7092 88.6895 16.7023 88.6688 16.6665L81.2632 4.13138ZM72.7246 18.1401C72.7202 18.1429 72.7169 18.147 72.7151 18.1518C72.7133 18.1566 72.7131 18.1619 72.7146 18.1668C72.7161 18.1717 72.7192 18.176 72.7234 18.1791C72.7275 18.1821 72.7326 18.1838 72.7378 18.1838L74.3092 18.1861L74.3224 18.1822L79.7408 14.7828L79.7488 14.7742L79.7517 14.7629L79.7532 13.79L79.7498 13.7778L79.7406 13.769L79.7281 13.7661L79.7159 13.77L72.7246 18.1401ZM86.6808 18.183L86.694 18.1868L88.2421 18.1838C88.2421 18.1838 88.2522 18.1819 88.2563 18.1788C88.2603 18.1756 88.2632 18.1713 88.2646 18.1664C88.266 18.1616 88.2658 18.1564 88.264 18.1516C88.2622 18.1469 88.2589 18.1428 88.2545 18.1401L81.2562 13.7639L81.244 13.76L81.2316 13.7629L81.2223 13.7716L81.2189 13.7838V14.7567L81.2218 14.7681L81.2298 14.7767L86.6808 18.183ZM77.0938 18.1401C77.0892 18.1429 77.0858 18.1471 77.0839 18.1521C77.082 18.157 77.0817 18.1625 77.0832 18.1676C77.0847 18.1727 77.0878 18.1771 77.0921 18.1803C77.0964 18.1835 77.1016 18.1853 77.107 18.1853H83.8822C83.8876 18.1853 83.8928 18.1835 83.8971 18.1803C83.9014 18.1771 83.9045 18.1727 83.906 18.1676C83.9075 18.1625 83.9073 18.157 83.9054 18.1521C83.9035 18.1471 83.9 18.1429 83.8955 18.1401L80.5078 16.024L80.4946 16.0203L80.4814 16.024L77.0938 18.1401Z" fill="#135F5F"/>
</g>
</svg>
